<?xml version="1.0" encoding="UTF-8" standalone="no"?>
<svg
   xmlns:dc="http://purl.org/dc/elements/1.1/"
   xmlns:cc="http://creativecommons.org/ns#"
   xmlns:rdf="http://www.w3.org/1999/02/22-rdf-syntax-ns#"
   xmlns:svg="http://www.w3.org/2000/svg"
   xmlns="http://www.w3.org/2000/svg"
   viewBox="0 0 1872 1498.6667"
   height="1498.6667"
   width="1872"
   xml:space="preserve"
   id="svg2"
   version="1.1"><metadata
     id="metadata8"><rdf:RDF><cc:Work
         rdf:about=""><dc:format>image/svg+xml</dc:format><dc:type
           rdf:resource="http://purl.org/dc/dcmitype/StillImage" /></cc:Work></rdf:RDF></metadata><defs
     id="defs6" /><g
     transform="matrix(1.3333333,0,0,-1.3333333,0,1498.6667)"
     id="g10"><path
       id="path12"
       style="fill:#002cff;fill-opacity:1;fill-rule:nonzero;stroke:none"
       d="m 683.65,1045.15 c 5.78,-0.19 11.57,0.27 17.34,-0.16 l 0.57,-0.44 c 0.62,-6.67 0.01,-13.4 0.43,-20.09 8.17,0.03 16.89,0.73 24.41,-3.11 8.27,-4.07 10.52,-15.51 6.54,-23.3 -3.75,-6.57 -11.95,-8.42 -18.96,-8.54 -9.88,0.03 -19.78,-0.25 -29.65,-0.01 -0.19,0.22 -0.58,0.66 -0.78,0.88 -0.39,13.22 -0.11,26.45 -0.29,39.68 0.13,5.03 -0.46,10.11 0.39,15.09 m 18.32,-33.57 c -0.05,-2.85 -0.04,-5.7 -0.02,-8.56 3.85,0.14 7.82,-0.41 11.59,0.65 3.21,0.86 3.78,6.25 0.4,7.26 -3.86,1.21 -8,0.5 -11.97,0.65 m 49.52,31.99 c 1.33,0.69 2.93,-0.07 4.37,-0.1 12.69,-1.84 25.39,-3.63 38.1,-5.39 1.22,-0.33 2.93,-0.06 3.68,-1.36 -0.21,-3.93 -1.01,-7.8 -1.6,-11.69 -9.5,0.78 -18.87,2.61 -28.32,3.73 -0.36,-2.58 -0.72,-5.16 -1.08,-7.74 7.9,-1.18 16.37,-1.67 23.23,-6.21 10.09,-6.19 9.17,-24.14 -1.97,-28.68 -7.3,-3.09 -15.33,-1.2 -22.85,-0.19 -7,1.15 -14.11,1.69 -21.03,3.19 -0.79,1.53 -0.02,3.27 0.06,4.87 2.09,14.37 4.11,28.75 6.12,43.13 0.36,2.15 0.38,4.42 1.29,6.44 m 13.34,-35.27 c -0.4,-2.84 -0.81,-5.68 -1.19,-8.52 3.74,-0.43 7.48,-1.46 11.27,-1.1 3.47,0.13 5.11,5.61 1.83,7.22 -3.69,1.8 -7.95,1.67 -11.91,2.4 m -148.16,27.87 c 15.59,2.6 31.24,4.77 46.85,7.29 1.59,-3.96 1.63,-8.31 2.42,-12.46 2.04,-14.05 4.54,-28.06 6.28,-42.15 -5.68,-1.9 -11.83,-1.93 -17.67,-3.18 -1.28,3.34 -1.54,6.93 -2.09,10.43 -1.5,9.85 -3.03,19.7 -4.51,29.55 -3.61,-0.54 -7.22,-1.09 -10.82,-1.65 1.28,-9.66 3.49,-19.25 3.61,-29.03 0.18,-4.3 -1.9,-8.75 -5.78,-10.82 -5.7,-3.03 -12.29,-3.77 -18.65,-3.86 -0.33,4.14 -2.09,8.39 -1.33,12.48 1.88,0.62 3.88,0.88 5.71,1.66 1.65,0.84 1.54,2.97 1.42,4.53 -1.63,12.43 -4.03,24.75 -5.44,37.21 m 202.46,-6.09 c 0.59,0.97 0.42,2.96 1.93,3.03 5.55,-1.37 10.91,-3.47 16.39,-5.11 -1.54,-6.74 -4.14,-13.18 -6.04,-19.82 7.59,-2.43 15.79,-4.38 21.8,-9.94 8.96,-7.76 5.01,-25.38 -6.8,-27.88 -6.6,-1.51 -13.24,0.7 -19.46,2.77 -7.81,2.59 -15.73,4.9 -23.48,7.67 4.98,16.5 10.52,32.83 15.66,49.28 m 8.31,-33.99 c -0.85,-2.76 -1.73,-5.52 -2.6,-8.28 3.71,-1.11 7.34,-2.81 11.27,-3.05 3.52,-0.26 5.85,5.03 2.73,7.09 -3.39,2.31 -7.55,3.03 -11.4,4.24 m -243.41,31.82 c 4,1.2 7.96,2.55 12.05,3.42 1.35,-4.12 2.66,-8.26 3.71,-12.48 -8.73,-2.94 -17.59,-5.48 -26.42,-8.08 0.6,-2.17 1.25,-4.32 1.97,-6.46 7.91,2.43 15.79,5.06 23.8,7.13 l 0.87,-0.32 c 1.44,-3.6 2.5,-7.37 3.37,-11.14 -0.92,-0.99 -2.31,-1.2 -3.51,-1.65 -6.97,-2.06 -13.92,-4.19 -20.88,-6.3 0.82,-2.72 1.64,-5.45 2.43,-8.18 9.09,2.48 18.05,5.41 27.08,8.09 2.07,-4.16 3.02,-8.74 4.35,-13.17 -14.29,-4.83 -28.84,-8.91 -43.27,-13.3 -1.75,-0.95 -2.32,1.18 -2.68,2.43 -4.23,14.03 -8.48,28.06 -12.75,42.08 -0.77,2.63 -1.8,5.22 -2.08,7.96 10.46,3.84 21.33,6.56 31.96,9.97 m 287.23,-11.15 c 5.93,-1.11 11.69,-3.29 17.32,-5.46 -5.68,-17.34 -10.89,-34.86 -16.91,-52.07 -5.94,1 -11.75,3.24 -17.36,5.47 5.73,17.32 10.88,34.87 16.95,52.06 m -350.99,-11.94 c 5.58,2.57 12.77,3.34 17.85,-0.73 7.01,-5.75 10.55,-17.2 4.79,-24.98 -4.31,-5.85 -11.53,-8.1 -17.81,-11.11 2.69,-6.02 5.55,-11.96 8.14,-18.03 -5.37,-2.76 -10.93,-5.13 -16.43,-7.62 -4.69,9.01 -8.52,18.44 -12.86,27.61 -3.32,7.61 -7.2,14.99 -10.12,22.77 8.8,4.05 17.61,8.09 26.44,12.09 m -4.67,-15.99 c 1.39,-3.14 2.82,-6.27 4.27,-9.39 2.69,1.39 5.91,2.34 7.73,4.95 1.94,3.05 -0.96,7.71 -4.57,7.21 -2.64,-0.44 -5.01,-1.73 -7.43,-2.77 m 391.11,-46.82 c 9.56,15.6 18.98,31.31 28.96,46.65 4.65,-2.94 9.34,-5.81 14.02,-8.7 -4.64,-8.15 -9.78,-15.99 -14.66,-23.99 10.48,4.35 20.76,9.18 31.14,13.77 4.58,-2.9 9.38,-5.48 13.77,-8.67 -4.41,-8.09 -9.65,-15.71 -14.36,-23.63 -4.83,-7.63 -9.33,-15.48 -14.38,-22.97 -4.68,3.02 -9.62,5.64 -14.08,8.98 4.93,7.84 9.73,15.76 14.64,23.61 -10.37,-4.47 -20.66,-9.12 -30.96,-13.75 -4.74,2.84 -9.44,5.74 -14.09,8.7 m -470.2,15.83 c 14.57,9.12 29.05,18.37 43.65,27.44 2.78,-4 5.33,-8.15 7.81,-12.34 -4.64,-3.15 -9.45,-6.03 -14.17,-9.05 7.11,-11.38 14.33,-22.7 21.43,-34.1 -4.93,-3.42 -10.03,-6.6 -15.23,-9.6 -7.21,11.29 -14.34,22.64 -21.44,34.01 -4.91,-2.8 -9.48,-6.16 -14.5,-8.79 -2.53,4.14 -5.36,8.1 -7.55,12.43 m 130.43,-10.91 c 86.06,32.71 183.32,34.63 270.65,5.53 63.18,-20.93 120.99,-57.81 166.62,-106.26 32.11,-33.84 58.21,-73.33 76.92,-116.06 17.69,-40.46 28.57,-83.84 32.32,-127.83 -5.15,-0.09 -10.3,-0.08 -15.44,-0.02 -3.82,43.44 -14.88,86.27 -32.91,125.99 -21.34,47.26 -52.23,90.21 -90.31,125.41 -54.87,51.14 -124.86,85.89 -198.85,98.34 -64.48,11.04 -131.82,5.74 -193.58,-15.94 -0.06,-0.15 -0.17,-0.44 -0.23,-0.58 11.76,-12.08 27.89,-20.23 44.85,-21.12 11.05,-0.54 22.09,0.64 33.1,1.46 20.21,1.59 40.63,3.42 60.84,0.73 12.3,-1.73 25.08,-5.46 34.15,-14.41 2.86,-2.63 4.74,-6.05 6.97,-9.17 2.72,-1.65 5.84,-2.51 8.79,-3.69 -3.75,8.48 -11.51,14.03 -19.16,18.73 12.36,-0.84 24.67,-2.46 36.86,-4.66 8.67,-1.71 17.43,-3.55 25.52,-7.22 3.21,-1.57 6.7,-3.43 8.31,-6.81 1.01,-2.04 -0.05,-4.21 -0.69,-6.18 2.85,-1.92 5.43,-4.19 7.93,-6.55 6.71,0.91 13.66,-0.18 19.56,-3.6 8.39,2.65 17.87,3.91 26.01,-0.23 5.7,1.89 9.05,7.83 12.85,12.25 -0.92,-5.04 -1.55,-10.16 -2.95,-15.09 -0.42,-1.92 -2.17,-2.89 -3.69,-3.85 3.46,-2.74 7.14,-6.36 7.08,-11.12 -0.03,-3.21 -3.17,-4.68 -5.64,-5.87 -0.99,-8.38 -4.39,-16.79 -10.86,-22.42 2.41,6.64 4.85,13.69 3.15,20.82 -4.31,-1.05 -8.6,-2.22 -12.86,-3.46 -2.22,-10.27 -7.23,-21.01 -17.09,-25.91 1.86,8.03 5.74,16.41 2.84,24.68 -6.36,-2.64 -12.96,1.58 -16.38,6.86 -5.98,-0.03 -12.07,0.3 -17.65,2.63 -3.78,-3.01 -7.99,-5.95 -12.95,-6.36 -7.2,-0.77 -13.93,2.6 -19.94,6.15 -2.99,-1.43 -6.02,-2.76 -9.08,-4.03 5.68,-10.2 11.52,-20.34 18.03,-30.04 3,-4.26 5.87,-8.87 10.33,-11.77 3.75,-2.68 8.84,-4.51 9.99,-9.53 5.98,3.76 10.7,9.95 11.27,17.17 2.21,-5.79 3.99,-12.35 1.26,-18.31 3.27,-0.05 7.09,-0.5 9.72,1.92 2.83,2.52 2.63,6.6 2.89,10.05 2.72,-6.77 6,-14.07 4.47,-21.51 -0.65,-3.29 -3.79,-4.99 -6.79,-5.65 -0.65,-4.41 -1.84,-9.22 -5.51,-12.11 -2.75,-2.05 -5.34,-4.3 -7.73,-6.75 2.05,5.92 8.51,10.41 7.6,17.14 -0.22,2.83 -3.92,2.04 -5.82,1.64 -2.73,-4.02 -3.15,-9.58 -7.22,-12.75 -3.11,-2.32 -5.92,-4.99 -8.56,-7.83 2.58,6.83 9.17,11.65 10.11,19.15 -8.35,-0.29 -14.34,6.56 -17.85,13.35 -1.79,2.82 -2.32,6.79 -5.66,8.27 -12.85,7.54 -26.67,14.01 -41.47,16.45 -10.64,0.63 -20.41,-5.81 -27.2,-13.52 -3.5,6.55 -6.48,13.42 -8.37,20.61 -2.61,8.72 0.98,18.12 6.72,24.76 2.44,2.96 6.76,2.52 10.05,1.49 5.75,-1.95 11.15,-5.32 14.97,-10.1 4.75,-5.58 10.85,-10.4 18.07,-12.23 -6.98,6.18 -12.79,13.46 -18.86,20.48 -4.41,5.5 -11.87,6.79 -18.5,7.12 -8.97,0.38 -17.88,-1.68 -26.11,-5.16 1.29,11.16 6.36,23.97 18.16,27.43 -5.87,10.45 -16.69,17.49 -28.05,20.69 -9.13,2.7 -18.67,1.06 -28,1.3 -19.2,0.22 -38.76,2.21 -56.69,9.47 -12.18,4.92 -23.53,13.24 -29.49,25.22 C 504.25,908.09 439.24,858.8 393.77,795.3 350.19,735.08 324.69,662.06 321.11,587.82 c 26.23,-0.04 52.47,0.02 78.71,-0.03 -0.35,32.04 -0.12,64.09 -0.12,96.13 0.43,0.41 1.31,1.22 1.74,1.62 15.5,0.01 30.99,0.08 46.48,-0.03 10.25,-0.14 20.95,-2.85 28.59,-10.05 10.07,-9.19 13.65,-23.3 14,-36.5 0.11,-10.24 -0.35,-21.02 -5.25,-30.26 -3.72,-7.21 -9.63,-13.37 -16.94,-16.98 -3.68,-1.84 -7.77,-2.54 -11.7,-3.63 15.3,-0.66 30.65,-0.07 45.96,-0.31 -0.69,15.71 -0.11,31.47 -0.3,47.2 0.02,15.49 -0.03,30.99 0.02,46.48 1.14,-4.72 2.15,-9.82 5.63,-13.47 2.34,-2.78 5.9,-3.94 9.27,-4.98 -2.71,2.66 -5.88,5.24 -6.97,9.04 -1.22,4.46 -0.03,9.06 0.68,13.5 1.32,0 2.65,-0.01 3.99,-0.02 1.28,-7.54 4.26,-15.37 10.51,-20.15 2.5,-1.99 5.77,-2.21 8.83,-2.09 -2.67,1.62 -5.78,2.95 -7.29,5.87 -2.68,5.01 -2.2,10.92 -2.02,16.41 2.64,0 5.28,-0.01 7.93,-0.07 2.58,-6.07 6.53,-12.2 12.88,-14.79 2.74,-1.21 5.8,-0.9 8.68,-0.45 -2.66,0.96 -5.86,1.15 -7.8,3.45 -2.88,3.26 -3.47,7.78 -4.44,11.84 6.27,0.04 12.54,0.01 18.81,-0.12 0.12,-2.22 0.22,-4.45 0.41,-6.68 0.63,2.15 1.21,4.31 1.81,6.47 7.03,-0.74 14.55,-2.08 19.87,-7.16 8.02,-7.16 9.99,-19.1 7.34,-29.16 -2.32,-8.58 -9.29,-15.52 -17.64,-18.37 5.24,-3.25 9.05,-8.32 12.14,-13.57 3.94,-7.62 7.92,-15.23 11.78,-22.9 11.88,30.37 23.01,61.04 34.64,91.51 11.47,0 22.93,-0.04 34.4,0.02 11.82,-31.18 23.42,-62.45 35.22,-93.64 0.63,-1.32 0.66,-2.78 0.27,-4.18 10.36,0.16 20.72,-0.14 31.07,0.16 -7.13,2.75 -14.04,6.55 -18.99,12.5 -10.91,12.65 -13.68,30.52 -11.21,46.63 1.91,13.01 8.98,25.55 20.32,32.55 10.42,6.89 23.38,7.81 35.51,7.53 9.89,-0.26 20.51,-1.15 28.7,-7.29 7.05,-4.95 11.13,-12.89 13.66,-20.91 -0.92,-0.98 -1.63,-2.46 -3.16,-2.48 -9.38,-1.68 -18.76,-3.33 -28.14,-4.98 -1.32,4.07 -3.68,8.17 -7.85,9.81 -7.02,2.78 -16.04,1.63 -21.2,-4.23 -4.35,-4.87 -5.35,-11.7 -5.64,-18 -0.15,-6.9 0.15,-14.16 3.35,-20.43 2.91,-5.58 9.2,-8.69 15.36,-8.79 6.82,-0.52 13.31,2.12 19.15,5.39 0.01,2.07 0.02,4.14 0.04,6.2 -5.92,0.01 -11.85,0.01 -17.76,0.01 -0.46,0.41 -1.36,1.25 -1.82,1.66 -0.06,6.63 -0.02,13.26 -0.02,19.89 0.42,0.45 1.28,1.35 1.7,1.8 15.13,0.05 30.25,0.01 45.38,0.02 0.45,-0.45 1.34,-1.36 1.79,-1.81 0.04,-13.77 -0.09,-27.55 0.07,-41.32 -7.9,-5.74 -16.58,-10.39 -25.8,-13.6 22.18,-0.55 44.4,-0.24 66.59,-0.16 -7.84,2.88 -15.29,7.28 -20.42,14.01 -10.04,12.18 -11.94,28.96 -10.08,44.15 1.48,12.49 7.59,24.72 18.03,32.05 12.7,9.07 29.3,10.32 44.31,8.12 12.36,-1.81 24.32,-8.35 31.1,-19.07 8.18,-12.68 8.96,-28.65 6.85,-43.19 -1.6,-10.93 -6.95,-21.48 -15.71,-28.37 -4.02,-3.39 -8.88,-5.45 -13.59,-7.67 14.16,-0.36 28.32,0.02 42.48,-0.19 -0.76,15.39 -0.13,30.84 -0.33,46.26 -0.02,16.7 0.03,33.4 -0.03,50.1 1.2,0.84 2.48,1.69 4.05,1.45 8.73,-0.02 17.45,0.03 26.18,-0.05 10.9,-16.07 21.73,-32.19 32.82,-48.13 0.18,15.47 -0.01,30.95 0.09,46.42 0.42,0.43 1.25,1.29 1.66,1.71 9.36,0.11 18.72,-0.01 28.08,0.07 0.94,-1.38 1.74,-2.86 1.49,-4.6 -0.14,-31.07 0.17,-62.13 -0.16,-93.19 67.3,0.06 134.6,-0.03 201.89,0.03 4.58,0.37 7.45,-4.02 11.06,-6.15 -3.35,-2.35 -5.79,-6.9 -10.07,-7.35 -305.58,0.05 -611.17,-0.08 -916.75,0.06 0.79,43.12 8.15,86.17 22.42,126.89 26.44,76.45 76.64,144.4 141.73,192.39 29.81,22.19 62.77,40.08 97.51,53.26 m 153.42,-41.74 c 5.11,-4.87 9.74,-10.36 15.64,-14.31 7.91,-5.02 17.63,-1.68 26.16,-0.45 -8.2,0.32 -17.14,-1.24 -24.5,3.33 -6.22,3.16 -9.96,10.49 -17.3,11.43 m 47.62,-28.41 c 4.77,0.18 9.66,-0.59 13.99,-2.67 3.54,-1.7 4.82,-6.24 8.77,-7.35 5.58,-1.85 11.55,-0.08 16.59,2.52 -4.33,1.79 -6.25,6.6 -10.37,8.52 -9.53,1.85 -19.66,1.94 -28.98,-1.02 m 73.76,-3.37 c 0.5,-5.25 1.94,-10.56 5.42,-14.65 1.64,2.74 3.95,4.96 6.7,6.59 -4.7,1.53 -9.28,3.86 -12.12,8.06 M 535.34,662.8 c 0,-5.23 0.02,-10.46 -0.02,-15.7 6.54,0 13.36,-0.62 19.58,1.81 5.07,2.46 4.73,11.5 -0.94,13 -6.06,1.61 -12.43,0.65 -18.62,0.89 m 321.82,-2.03 c -5.33,-1.28 -9.62,-5.62 -11.19,-10.82 -2.2,-7.02 -2.17,-14.56 -1.35,-21.81 0.71,-6.04 3.33,-12.5 9.09,-15.33 7.57,-3.67 18.57,-2.25 23.02,5.54 3.3,6.3 3.44,13.67 3.43,20.63 -0.23,6.16 -1.16,12.97 -5.68,17.57 -4.4,4.54 -11.36,5.6 -17.32,4.22 m -424.59,-0.33 c 0.01,-16.09 -0.05,-32.18 0.03,-48.28 5.5,0.13 11.19,-0.39 16.5,1.38 4.62,1.74 6.9,6.75 7.62,11.33 1.04,7.02 1.09,14.22 0.04,21.24 -0.71,4.33 -2.24,9.07 -6.2,11.48 -5.36,3.34 -11.95,2.83 -17.99,2.85 m 214.97,-9.6 c -2.42,-8.01 -4.87,-16.01 -7.28,-24.03 5.31,0 10.61,0 15.93,0.01 -2.42,8.51 -5.56,16.83 -7.45,25.48 -0.4,1.28 -1.19,-1.27 -1.2,-1.46 m 308.61,-15.86 c -0.3,-15.73 0.47,-31.51 -0.4,-47.22 10.86,0.11 21.72,0.01 32.59,0.06 -10.69,15.75 -21.37,31.51 -32.19,47.16 M 535.18,587.79 c 9.19,0.04 18.39,0.01 27.58,0.02 -5.83,10.79 -11.54,21.66 -17.56,32.34 -1.8,3.77 -5.8,5.39 -9.74,5.71 -0.36,-12.68 0.16,-25.38 -0.28,-38.07 m 97.54,14.84 c -1.38,-4.96 -2.91,-9.87 -4.32,-14.82 13.13,-0.01 26.26,0.03 39.4,-0.03 -1.3,4.99 -2.98,9.87 -4.34,14.84 -10.25,0.12 -20.5,0.1 -30.74,0.01 m 41.61,348.1 c 9.56,-10.14 23.62,-13.57 36.79,-16.22 20.37,-4.09 41.53,-5.56 60.94,-13.5 8.71,-3.59 16.85,-9.15 22.1,-17.12 -2.69,1.37 -5.32,2.92 -8.22,3.78 -5.93,1.89 -12.65,0.63 -18.05,4.18 -7.22,3.57 -13.95,10.17 -22.56,9.19 6.28,-3.27 12.39,-6.92 17.69,-11.67 -3.84,0.2 -7.7,0.05 -11.52,0.48 -3.19,2.41 -5.92,5.46 -9.51,7.33 -15.41,8.98 -34.51,6.42 -50.19,14.66 -7.82,4.02 -13.74,11.02 -17.47,18.89 m 310.94,-10.48 c 5.76,4.43 13.92,4.85 20.14,1.12 7.14,-4.18 14.15,-10.34 16.06,-18.73 1.96,-8.21 -6.05,-16.8 -14.41,-15.1 1.47,-2.95 2.8,-6.3 1.83,-9.64 -1.84,-6.42 -8.12,-11.27 -14.79,-11.52 -6.87,-0.47 -13.2,3.16 -18.24,7.48 -4.81,4.09 -8.96,9.59 -9.54,16.05 -0.48,3.93 0.71,7.76 1.96,11.43 4.59,-2.87 8.86,-6.2 13.28,-9.31 -1.94,-4.02 0.1,-8.61 4.07,-10.39 4.39,-2.65 10.07,2.66 8.43,7.28 -1.08,3.41 -4.35,5.32 -6.9,7.55 2.06,2.62 4.21,5.18 6.32,7.78 1.87,-1.34 3.58,-2.97 5.72,-3.92 3.15,-1.3 7.17,1.35 7.3,4.71 -1.01,4.52 -6.86,7.18 -10.69,4.09 -3.53,3.7 -7.06,7.39 -10.54,11.12 m -581.41,-8.02 c 4.76,4.49 10.51,8.53 17.2,9.22 5.55,0.57 10.96,-1.54 15.62,-4.38 -3.11,-4.32 -6.4,-8.5 -9.61,-12.73 -1.93,0.87 -3.84,2.08 -6.02,2.05 -5.33,0.07 -10.16,-5.04 -9.56,-10.39 0.45,-4.19 3.23,-7.6 5.87,-10.7 2.43,-2.62 5.08,-5.45 8.66,-6.41 4.25,-0.97 8.42,1.96 10.45,5.53 1.99,3.78 -0.11,7.93 -1.5,11.53 4.95,2.14 9.88,4.29 14.85,6.38 3.14,-6.37 4.63,-14.09 1.53,-20.77 -3.29,-6.98 -9.69,-11.99 -16.29,-15.69 -8.92,-4.93 -20.44,-2.23 -27.68,4.47 -6.4,5.87 -11.98,13.68 -12.3,22.64 -0.33,7.39 3.52,14.31 8.78,19.25 m 177.79,-38.78 c 7.54,6.25 17.79,8.85 27.44,7.42 14.6,-1.87 29.13,-5.11 43.94,-4.72 5.43,-0.06 10.83,0.68 16.27,0.55 -4.01,-1.34 -8.27,-1.99 -12.04,-3.97 -13.65,-6.94 -25.57,-16.93 -35.86,-28.19 -11.8,-13.21 -21.84,-28.26 -27.95,-44.95 -10.53,-31.81 -11.15,-67.54 1.36,-98.91 4.25,-10.46 11.15,-19.54 16.27,-29.55 -3.03,-0.01 -6.05,-0.01 -9.07,0.01 -0.96,2.93 -2.34,5.97 -5.11,7.6 -4.75,3.16 -11.52,1.67 -14.98,-2.72 -2.95,-3.28 -3.05,-7.88 -3.58,-12.01 -2.03,5.35 -3.85,11.11 -2.88,16.89 1.08,5.57 4.94,10.27 5.39,16 0.3,3.83 -1.15,7.46 -2.29,11.02 -2.78,8.3 -4.46,16.92 -6.05,25.51 -0.63,3.22 -2.74,7.14 -6.52,7 -7.34,0.09 -14.74,-0.22 -21.98,-1.52 -8.58,-1.36 -15.76,-7.66 -18.6,-15.82 0.04,5.74 1.88,11.5 5.64,15.88 6.83,8.05 15.49,14.45 24.93,19.11 6.52,2.79 10.4,10.06 9.98,16.97 -0.55,3.69 -4.75,4.89 -7.95,4.71 -9.73,-0.5 -18.76,-6.18 -24.29,-14.08 2.59,9.95 10.9,17.07 19.4,22.14 5.15,3.34 10.89,5.67 15.93,9.18 1.7,1.24 3.99,3.35 2.58,5.62 -1.68,2.37 -4.98,2.47 -7.6,2.5 -8.75,-0.47 -17.39,-2.69 -25.4,-6.24 2.36,4.03 5.88,7.3 10.05,9.4 10.06,5.04 21.25,7.12 31.61,11.43 2.59,1.26 5.8,2.4 6.98,5.29 0.86,3.24 -2.64,5.12 -5.31,5.43 -8.22,1.08 -16.53,-0.78 -24.17,-3.74 5.17,9.84 17.06,12.2 27.18,12.8 6.63,0.87 14.48,-0.37 19.77,4.61 -4.97,5.17 -11.97,7.84 -18.84,9.35 -9.58,1.75 -18.93,-1.63 -28.07,-3.99 8.14,5.51 16.97,10.44 26.56,12.89 9.75,2.48 19.66,-0.34 28.95,-3.27 -7.33,9.55 -19.77,14.78 -31.69,14.37 m 28.86,-53.11 c 16.3,25.51 42.19,43.22 69.36,55.58 10.9,-4.35 22,-9.21 30.27,-17.83 -4.83,-1.15 -9.87,-3.5 -11.99,-8.3 -3.37,-7.49 -1.29,-16.05 1.44,-23.41 -13.44,-4.78 -26.59,-12 -35.36,-23.55 -8.52,-10.91 -11.93,-25.29 -10.21,-38.93 2.31,-19.34 12.6,-37.07 26.37,-50.57 8.19,-8.19 18.14,-14.31 28.33,-19.68 14.65,-7.76 29.64,-14.84 44.42,-22.35 -12.36,-0.39 -24.73,-0.03 -37.1,-0.19 -3.34,-0.4 -6.15,1.61 -8.99,3 -0.04,-0.75 -0.11,-2.25 -0.14,-3 -0.83,0 -2.49,0 -3.32,0 0.08,1.57 0.17,3.13 0.27,4.68 -2.84,1.56 -5.66,3.15 -8.43,4.83 -0.1,-3.14 -0.45,-6.27 -0.93,-9.38 -1.45,-0.05 -2.89,-0.1 -4.32,-0.17 1.12,3.68 1.91,7.43 2.37,11.24 -2.48,1.64 -4.96,3.28 -7.4,4.97 -0.52,-5.67 -2.06,-11.27 -4.99,-16.18 -1.71,0.03 -3.42,0.04 -5.11,0.04 3.87,5.33 6.26,11.57 7.42,18.03 -2.35,1.78 -4.69,3.59 -7.01,5.41 -1.66,-8.79 -6.37,-17.15 -13.77,-22.33 -2.55,-1.98 -6.03,-0.83 -8.99,-1.13 9.83,5.44 17.5,14.61 20.45,25.52 -1.8,1.55 -3.56,3.14 -5.3,4.74 -2.81,-7.24 -7.46,-13.93 -14.08,-18.17 -4.49,-3.04 -9.8,-4.52 -15.11,-5.33 2.67,-2.3 5.4,-4.54 8.16,-6.74 -6.9,0 -13.79,0.01 -20.68,-0.01 -12.51,12.07 -23.42,26.27 -29.35,42.77 -6.57,17.86 -6.89,37.43 -3.83,56.05 3.01,17.58 7.65,35.32 17.55,50.39 M 686,872.82 c -3.37,-9.23 0.04,-19.19 5.74,-26.68 0.81,0.28 2.42,0.84 3.23,1.12 -2.15,6.28 -3.48,13.19 -1.56,19.71 0.95,3.65 3.41,6.61 5.91,9.33 -4.47,-1.03 -8.9,-2.24 -13.32,-3.48 m -14.8,-5.19 c -0.33,-9.73 4.67,-18.62 11.09,-25.58 2.52,1.17 5.06,2.32 7.63,3.42 -7.06,6.28 -12.09,15.97 -9.49,25.56 -3.09,-1.11 -6.17,-2.23 -9.23,-3.4 m -12.16,-5.52 c 1.24,-9.85 6.99,-18.54 14.33,-24.99 2.69,1.15 5.07,2.87 7.65,4.24 -7.92,5.63 -13.97,14.48 -14.25,24.42 -2.58,-1.2 -5.17,-2.42 -7.73,-3.67 m -11.64,-6.74 c 3.03,-10 10.29,-18.02 18.72,-23.9 2.07,1.59 4.14,3.19 6.17,4.85 -8.7,5.05 -15.51,13.66 -17.16,23.73 -2.61,-1.5 -5.2,-3.04 -7.73,-4.68 m -10.69,-7.73 c 4.64,-9.57 13.29,-16.86 23.08,-20.79 -0.74,-0.43 -1.47,-0.86 -2.2,-1.28 -10.09,3.1 -19.41,9.57 -24.31,19.12 -2.34,-2.31 -4.68,-4.62 -6.99,-6.96 6.47,-9.65 17.27,-15.44 28.35,-18.08 3.09,4.03 6.63,7.68 10.48,10.98 -9.71,4.22 -17.89,12.26 -21.24,22.42 -2.41,-1.77 -4.8,-3.58 -7.17,-5.41 m -18.46,-20.1 c 7.85,-9.15 19.69,-14 31.55,-14.88 1.2,1.93 2.45,3.82 3.75,5.69 -11.61,0.82 -23.29,6.17 -30.01,15.93 -1.85,-2.17 -3.59,-4.44 -5.29,-6.74 m -2.14,-3.43 c -1.55,-2.66 -3.03,-5.35 -4.44,-8.08 9.27,-8.19 21.85,-11.73 34.08,-11 0.91,1.89 1.86,3.76 2.84,5.61 -12.09,-0.55 -24.81,3.77 -32.48,13.47 m -8.87,-19.03 c 9.57,-8.16 22.43,-11.62 34.87,-10.47 0.81,2.75 1.69,5.48 2.69,8.17 -12.19,-2.11 -25.83,0.66 -34.6,9.83 -1.07,-2.48 -2.05,-4.99 -2.96,-7.53 m -1.11,-3.49 c -0.69,-2.83 -1.36,-5.66 -2.02,-8.49 10.4,-7.56 23.85,-9.78 36.37,-7.49 0.36,2.22 0.72,4.43 1.12,6.64 -12.41,-2.59 -26.38,0.07 -35.47,9.34 m -3.64,-22.88 c 11.57,-6.12 25.42,-6.84 37.77,-2.68 -0.01,2.42 0.01,4.84 0.07,7.26 -12.29,-3.88 -26.7,-2.48 -36.75,6.09 -0.52,-3.54 -0.87,-7.1 -1.09,-10.67 m -0.09,-3.6 c 0.06,-3.63 0.2,-7.25 0.58,-10.86 12.48,-4.62 26.6,-3.72 38.46,2.27 -0.37,2.4 -0.71,4.79 -1,7.19 -11.93,-5.73 -26.74,-5.93 -38.04,1.4 m 0.84,-14.15 c 0.58,-3.62 1.21,-7.24 1.98,-10.83 13.22,-3.39 27.51,-0.63 38.73,7.05 -0.7,2.34 -1.37,4.69 -2.01,7.04 -11.28,-7.47 -26.43,-9.6 -38.7,-3.26 m 2.73,-13.95 c 1.05,-3.6 2.19,-7.19 3.48,-10.72 8.15,-0.85 16.61,-0.21 24.22,3.01 5.18,2.09 9.75,5.35 14.05,8.86 -1,2.27 -1.99,4.55 -2.92,6.85 -10.37,-9.24 -25.65,-13.19 -38.83,-8 m 4.58,-13.5 c 1.62,-3.6 3.37,-7.15 5.37,-10.56 6.35,0.29 12.78,1.05 18.72,3.48 7.04,2.73 13.06,7.57 18.02,13.2 -1.31,2.13 -2.58,4.28 -3.81,6.45 -9.19,-10.84 -24.39,-16.57 -38.3,-12.57 m 27.2,-10.24 c -6.35,-3.04 -13.57,-3.61 -20.47,-2.69 2.42,-3.43 5.09,-6.68 7.92,-9.79 13.41,1.5 26.15,8.84 33.29,20.43 -1.18,2.28 -2.92,4.2 -4.44,6.24 -4.15,-5.98 -9.61,-11.18 -16.3,-14.19 m 22.62,6.03 c -5.85,-12.45 -18.91,-21.27 -32.85,-20.79 2.82,-2.99 5.83,-5.8 8.82,-8.63 12.64,3.15 23.76,11.73 29.4,23.56 -1.78,1.97 -3.58,3.91 -5.37,5.86 m 374.67,131.6 c 10.34,7.59 20.14,15.94 30.28,23.8 10.01,-12.12 19.62,-24.57 29.44,-36.85 -14.15,-11.55 -28.53,-22.81 -42.85,-34.15 -3.73,4.57 -7.47,9.14 -10.97,13.88 10.5,8.44 21.09,16.76 31.61,25.17 -2.46,3.07 -4.89,6.15 -7.34,9.22 -7.81,-5.96 -15.1,-12.69 -23.57,-17.72 -3.49,-2.18 -8.14,-2.73 -11.74,-0.54 -5.43,3.25 -9.19,8.56 -12.52,13.81 3.04,2.62 6.19,5.11 9.43,7.48 1.99,-2.35 4.7,-6.56 8.23,-4.1 M 322.83,842.23 c 9.26,12.21 18.77,24.21 28.19,36.3 3.06,-2.32 6.07,-4.71 9.14,-7.03 -5.56,-7.69 -11.77,-14.9 -17.32,-22.6 2.09,-2.12 4.58,-3.8 6.93,-5.61 5.11,6.43 9.81,13.82 17.45,17.51 10.09,5.1 24.52,-4.46 22.63,-15.94 -0.69,-4.99 -3.41,-9.4 -6.43,-13.32 -5.88,-7.55 -11.77,-15.1 -17.64,-22.65 -14.4,11 -28.6,22.27 -42.95,33.34 m 44.48,3.5 c -3.5,-2.51 -5.64,-6.38 -8.34,-9.65 2.57,-2 5.14,-4 7.73,-5.98 2.33,3.28 5.36,6.16 6.99,9.89 1.89,3.64 -2.95,8.32 -6.38,5.74 M 808.73,842 c 3.21,-0.39 6.39,-1.32 9.08,-3.18 10.32,-6.89 16.6,-18.09 26.08,-25.9 7.46,-4.84 15.91,-9.44 25.12,-8.68 5.82,0.53 12.28,0.79 16.92,4.85 4.98,4.41 6.96,11.05 10.75,16.36 4.63,6.96 12.37,11.29 20.39,13.12 5.98,1.09 12.06,-0.34 17.79,-2 7.18,-2.2 14.16,-5.16 20.57,-9.08 4.63,-2.89 9.19,-6.37 11.69,-11.35 -7.72,7.98 -17.74,13.75 -28.55,16.3 -8.27,1.96 -16.97,0.76 -24.87,-2.1 -3.45,-1.2 -6.55,-3.52 -8.33,-6.75 -2.89,-5.16 -3.91,-11.4 -8.16,-15.76 -6.05,-6.32 -14.94,-8.79 -23.33,-10.12 -9.84,-1.55 -19.82,1.01 -28.55,5.52 -9.44,4.79 -17.87,11.32 -25.78,18.28 -6.43,5.61 -13.51,10.76 -21.72,13.37 -4.5,1.55 -9.28,1.93 -13.95,2.64 6.99,1.27 14.36,1.75 21.2,-0.59 7.17,-2.19 13.09,-6.91 19.13,-11.16 -2.28,7.67 -9.11,12.2 -15.48,16.23 m 269.3,-41.17 c 8.61,11.6 16.2,23.96 24.94,35.46 3.6,-5.35 6.63,-11.07 10.06,-16.55 -4.61,-5.52 -9.4,-10.89 -14.03,-16.39 6.99,1.51 13.98,3.04 20.97,4.59 2.91,-5.27 6.56,-10.17 8.94,-15.7 -7.42,-1.89 -15.19,-2.17 -22.74,-3.44 -9.03,-1.12 -18.02,-2.58 -27.08,-3.5 -3.9,-0.46 -8.07,0.13 -11.15,2.73 -4.97,4.11 -7.2,10.39 -9.86,16.05 3.59,2.12 7.13,4.35 10.84,6.26 2.19,-3.62 3.69,-10.33 9.11,-9.51 m -763.57,29.73 c 2.34,-2.06 4.06,-4.67 5.9,-7.16 7.56,-10.14 15.18,-20.24 22.73,-30.4 2.53,-3.54 5.41,-7.43 5.03,-12.04 -0.49,-6.99 -5.4,-12.45 -9.28,-17.89 -3.55,2.09 -7.21,4 -10.56,6.41 2.03,3.25 5.44,6.41 4.91,10.57 -0.23,2.67 -3.2,2.27 -5.08,2.54 -13.05,1.36 -26.18,2.1 -39.16,3.99 3.04,5.54 6.4,10.91 9.42,16.47 7.2,-1.13 14.28,-2.9 21.46,-4.21 -4.73,5.47 -9.57,10.84 -14.36,16.27 2.99,5.15 5.97,10.31 8.99,15.45 m 343.93,-47.31 c 10.14,-5.22 14.74,-16.52 23.44,-23.42 2.51,-1.92 5.77,-3.48 9,-2.68 7.76,8.47 16.69,17.03 28.16,19.9 4.92,1.42 10.01,-0.96 12.68,-5.17 1.23,2.03 2.71,4.33 5.34,4.54 5.17,0.73 9.3,-3.29 11.9,-7.27 2.4,1.44 5.46,2.38 8.05,0.79 5.67,-3.34 7.42,-10.24 9.08,-16.16 -2.46,2.77 -5.05,6.21 -9.06,6.44 -3,0.16 -4.64,-2.64 -5.79,-4.94 -2.44,3.92 -6.93,7.3 -11.76,6.2 -2.71,-0.55 -3.95,-3.19 -5.01,-5.43 -3.08,2.44 -7.31,5.12 -11.23,2.84 -7.17,-4.34 -7.86,-13.76 -13.26,-19.55 -2.53,0.03 -3.21,2.79 -3.53,4.78 -0.67,5.04 -0.2,10.16 -1.09,15.18 -4.63,-7.04 -9.18,-14.62 -16.55,-19.13 -2.12,-1.37 -4.92,-2.07 -7.2,-0.67 -4.89,2.68 -8.1,7.48 -11.04,12.05 -5.85,9.74 -10.19,20.48 -12.13,31.7 m 427.39,-24.04 c 16.41,7.18 32.9,14.22 49.4,21.21 2.59,-5.34 5.03,-10.78 7.05,-16.37 -5.75,-3.66 -12.57,-5.46 -18.66,-8.58 6.61,-3.62 15.16,1.3 21.55,-3.27 4.94,-4.16 7.21,-10.49 9.72,-16.25 -3.79,-1.85 -7.6,-3.76 -11.65,-4.96 -1.84,2.37 -2.87,6.04 -6.26,6.59 -4.44,0.59 -9.19,-0.35 -13.24,2.05 -0.83,-7.17 -6.04,-12.51 -10.47,-17.76 -2.77,-3.21 -5.44,-6.52 -8.35,-9.61 -3.69,5.72 -5.64,12.37 -8.47,18.52 3.36,3.61 6.6,7.32 9.92,10.98 2.18,2.49 4.75,4.98 5.14,8.47 -6.64,-2.56 -13.07,-5.62 -19.68,-8.27 -2.57,5.21 -4.94,10.54 -6.94,15.99 0.24,0.31 0.7,0.94 0.94,1.26 m -802.93,14.72 c 16.97,-6.89 33.91,-13.83 50.83,-20.84 -1.93,-5.67 -4.43,-11.13 -6.66,-16.69 -12.65,4.67 -25,10.13 -37.51,15.17 -1.48,-3.49 -2.91,-6.99 -4.33,-10.49 8.39,-3.6 17.06,-6.6 25.14,-10.89 4.32,-2.07 8.22,-6.07 7.98,-11.19 -0.34,-6.43 -2.92,-12.57 -6.32,-17.96 -3.75,1.59 -7.54,3.06 -11.23,4.78 0.66,2.05 1.61,4.05 1.78,6.21 -0.06,2.07 -2.21,2.99 -3.78,3.79 -11.32,4.78 -22.79,9.21 -34.07,14.1 5.94,14.72 11.77,29.5 18.17,44.01 m 454.86,-18.86 c -0.44,2.09 0.88,4.71 3.25,4.62 3.25,-0.13 5.81,-2.55 7.83,-4.87 5.79,-7.09 9.32,-16.5 7.76,-25.7 -0.94,-5.73 -4.18,-11.62 -9.98,-13.55 2.2,3.19 4.91,6.41 4.98,10.51 0.23,6.28 -3.18,11.94 -6.71,16.86 -2.7,3.81 -6.51,7.27 -7.13,12.13 m 16.69,-1.79 c -0.94,2 -0.16,5.37 2.6,5.05 3.85,-0.51 6.39,-3.93 8.3,-7.01 2.75,-4.89 4.94,-10.51 4.18,-16.22 -0.6,-4.26 -3.32,-7.85 -6.55,-10.54 1.42,3.93 3.31,8.12 2.06,12.36 -1.68,6.55 -8.19,10.22 -10.59,16.36 m -28.13,2.17 c 3.05,1.74 5.92,-1.44 7.49,-3.77 4.93,-7.94 7.18,-18.14 3.94,-27.14 -1.97,-5.55 -6.3,-10.84 -12.4,-11.81 3.06,2.43 6.54,5.1 7.02,9.3 1.15,8.4 -3.48,16.01 -6.71,23.41 -1.17,3.11 -2.11,7.47 0.66,10.01 m -159.82,-2.07 c 2.31,-4.43 2.28,-9.57 3.6,-14.31 1.58,-7.97 4.74,-15.56 5.85,-23.63 -9.93,-1.11 -19.93,1.44 -28.83,5.75 2.13,-4.46 4.98,-8.53 7.2,-12.96 1.01,-2.14 2.09,-4.54 1.44,-6.97 -1.8,-1.2 -3.46,0.67 -5.01,1.44 -5.49,3.41 -10.9,8.38 -17.75,8.25 -4.15,-0.23 -5.74,-4.65 -6.76,-8 -2.39,1.49 -5.25,3.24 -8.13,2.02 -4.14,-1.67 -6.11,-6.47 -5.71,-10.72 -2.39,1.38 -5.41,3.2 -8.12,1.5 -3.12,-1.83 -3.44,-5.76 -4.11,-8.95 -2.17,5.35 -4.3,11.89 -1.3,17.33 1.42,2.65 4.54,3.09 7.25,3.13 0.03,4.05 0.7,8.89 4.61,11.06 2.62,1.72 5.71,0.42 8.04,-1.14 -0.57,5.03 3.59,8.77 8.06,10 10.18,3.11 21.13,2.44 31.47,0.5 4.27,4.41 3.25,11.02 4.54,16.55 0.48,3.3 1.91,6.35 3.66,9.15 m 149.57,-36.51 c -9.69,6.81 -17.39,18.91 -13.93,31.09 1.48,-4.65 3.16,-9.51 7.22,-12.58 3.4,2.93 6.02,6.59 8.83,10.06 1.62,-6.82 -3.68,-12.21 -5.14,-18.45 -1.02,-3.72 1.17,-7.1 3.02,-10.12 m -457.77,-5.21 c 4.12,0.27 8.18,-1.85 12.27,-2.55 -0.09,-3.15 -1.47,-6.97 1.11,-9.52 3.09,-3.04 7.37,-5.1 8.94,-9.45 3.52,3.4 8.14,5.25 12.85,6.26 6.33,1.33 12.63,2.88 19.03,3.85 -0.93,-6.74 -3.18,-13.2 -4.72,-19.81 -6.24,-1.19 -12.51,-2.2 -18.72,-3.54 -1.95,-0.32 -3.64,-1.36 -5.1,-2.65 6.55,-2.09 13.37,-3.25 19.89,-5.4 l 0.64,-0.81 c -1.14,-5.28 -2.52,-10.52 -4.01,-15.72 -0.4,-1.82 -2.4,-0.65 -3.59,-0.55 -16.68,4.48 -33.53,8.35 -50.11,13.12 0.81,5.94 2.83,11.64 4.2,17.46 6.85,-1.17 13.43,-3.49 20.25,-4.8 -3.45,6.64 -12.64,8.15 -15.17,15.47 -1.32,6.21 0.34,12.72 2.24,18.64 m 297.17,0.59 c 5.86,-5.73 8.79,-14.01 8.34,-22.14 -0.51,-1.6 0.6,-4.75 -1.72,-5.04 -2.4,1.58 -3.38,4.61 -5.84,6.17 -4.1,2.91 -8.51,5.85 -10.49,10.69 3.86,-1.73 7.76,-3.38 11.85,-4.53 1.37,5.09 -0.6,10.07 -2.14,14.85 m 549.38,-0.9 c 3.36,0.74 6.78,-0.04 10.17,-0.29 16.24,-1.51 32.48,-3.1 48.73,-4.53 1.79,-6.28 3.55,-12.58 5.13,-18.91 -15.06,-10.74 -30,-21.63 -45,-32.46 -0.98,-0.32 -2.62,-2.39 -3.33,-0.82 -2.02,5.69 -3.28,11.64 -4.9,17.46 2.64,1.57 5.25,3.19 7.84,4.85 -1.61,5.6 -3.02,11.25 -4.68,16.83 -3.05,0.01 -6.09,0.07 -9.13,0.11 -1.65,5.91 -3.27,11.83 -4.83,17.76 m 28.22,-18.39 c 0.79,-2.95 1.6,-5.92 2.46,-8.87 4.28,2.8 8.67,5.43 12.91,8.29 -5.12,0.38 -10.25,0.4 -15.37,0.58 m -408.05,16.85 c 16.98,-2.63 33.98,2.25 51.02,0.92 10.89,-0.54 22.07,-3.77 30.11,-11.45 -8.6,2.64 -18.19,3.33 -26.78,0.32 -4.04,-1.34 -4.78,-6.6 -8.82,-7.83 -3.07,-0.86 -6.5,-1.04 -9.45,0.28 -12.14,5.68 -24.13,11.68 -36.08,17.76 m -194.64,-5.28 c 1.05,2.89 4.71,2.05 6.23,0.06 4.66,-5.15 4.15,-12.58 5.61,-18.96 -3.14,0 -6.28,0 -9.41,-0.02 -1.78,6.05 -4.52,12.63 -2.43,18.92 m -12.61,-2.29 c 1.86,2.06 5.03,0.78 6.18,-1.36 2.9,-4.59 1.45,-10.19 1.08,-15.24 -3.38,-0.02 -6.75,-0.01 -10.12,-0.03 -0.25,5.55 -1.13,12.13 2.86,16.63 m -13.14,-8.8 c 1.03,1.28 3.08,1.68 4.37,0.54 2.47,-2.01 2.06,-5.5 2.24,-8.34 -2.29,-0.01 -4.57,-0.01 -6.85,0.01 -0.76,-0.54 -1.51,-1.08 -2.26,-1.62 0.33,3.2 0.19,6.85 2.5,9.41 m 626.97,-85.4 c 29.4,2.28 59.1,3.62 88.47,-0.02 19.58,-2.42 38.82,-7.46 57.1,-14.9 8.74,-3.51 17.29,-7.48 25.86,-11.41 -16.61,-7.7 -33.39,-15.3 -51.12,-20.09 -24.61,-7.13 -50.38,-8.65 -75.86,-8.86 -14.37,0.42 -28.73,1.05 -43.05,2.13 -0.83,0.19 -2.5,0.57 -3.34,0.76 3.63,1.36 7.62,0.5 11.41,0.93 23.47,1.58 47.49,2.36 69.88,10.32 9.17,3.32 18.5,7.44 25.05,14.93 -7.74,7.49 -17.65,11.99 -27.75,15.34 -25.31,8.17 -52.22,8.31 -78.51,9.82 0.47,0.26 1.4,0.79 1.86,1.05 M 123.74,593.85 c 1.37,-0.09 2.84,-0.19 3.89,-1.2 13.12,-10.23 26.39,-20.29 39.97,-29.9 3.39,-0.97 7.09,-0.25 10.61,-0.4 -11.06,9.2 -21.78,18.79 -32.4,28.49 -1.04,0.78 -1.58,1.94 -1.77,3.19 9.25,-5.9 17.57,-13.18 26.6,-19.42 5.74,-4.11 11.47,-8.23 17.24,-12.3 3.34,-0.01 6.67,-0.01 10.01,0.03 -8.64,7.15 -17.09,14.51 -25.52,21.9 -2.8,2.46 -5.94,4.68 -7.93,7.9 3,-0.45 5.18,-2.64 7.54,-4.33 11.49,-8.53 23.14,-16.85 34.93,-24.95 3.1,-1.22 6.62,-0.21 9.88,-0.32 -8.13,6.24 -15.84,13.01 -23.74,19.52 -3.41,2.99 -7.21,5.58 -10.03,9.18 2.02,0.23 4,-0.21 5.56,-1.55 12.01,-8.74 24.17,-17.27 36.42,-25.67 3.38,-2.65 7.95,-1.1 11.89,-1.66 -8.4,6.39 -16.39,13.29 -24.57,19.94 -1.52,1.21 -2.9,2.57 -4.16,4.03 1.72,0.16 3.46,-0.05 4.82,-1.19 10.86,-7.59 21.83,-15.05 32.88,-22.37 3.36,-0.96 7.03,-0.19 10.51,-0.32 -6.68,5.71 -13.95,10.72 -20.23,16.87 3.46,-0.51 7.02,-1.25 9.88,-3.39 6.61,-4.56 13.39,-8.88 19.97,-13.5 3.44,-0.1 6.89,-0.1 10.34,0.14 -3.02,2.27 -6.17,4.44 -8.67,7.3 3.85,-0.58 7.6,-1.76 11.26,-3.06 3.46,-1.28 5.98,-4.91 9.97,-4.66 205.34,-0.04 410.69,0 616.04,-0.02 69.98,0.1 139.96,-0.19 209.94,0.15 -0.85,-46.5 -9.37,-92.89 -25.79,-136.43 -27.01,-72.14 -75.23,-136.12 -137.02,-182.1 -29.29,-21.96 -61.62,-39.82 -95.74,-53.07 -42.44,-16.51 -87.73,-25.57 -133.23,-27.08 -50.58,-1.61 -101.46,6.27 -149.13,23.28 -55.09,19.66 -105.77,51.48 -147.46,92.5 -51.05,49.99 -88.56,113.7 -107.14,182.71 -6.44,23.46 -10.51,47.54 -12.65,71.77 5.15,0.02 10.29,0.04 15.43,-0.02 3.93,-44.63 15.55,-88.62 34.5,-129.25 30.01,-64.99 78.47,-121.28 138.11,-160.85 15.37,-10.25 31.52,-19.29 48.13,-27.37 -6.45,11.6 -11.7,24.25 -12.4,37.66 -0.42,5.27 0.52,10.49 1.07,15.7 -3.91,-2.11 -7.37,-4.94 -11.26,-7.09 2.39,7.95 5.86,15.62 10.75,22.35 1.71,2.41 4.05,4.35 5.46,6.97 -0.04,1.42 -1.12,2.71 -2.56,2.77 -7,0.77 -13.97,-0.87 -20.69,-2.67 10.08,10.41 21.61,19.44 34.32,26.42 4.59,2.55 9.6,4.28 14.12,6.95 1.5,0.57 1.74,2.85 0.18,3.5 -5.04,3.36 -11.18,4.7 -17.19,4.55 9.54,4.3 20.01,5.97 30.36,6.79 10.66,0.69 21.61,0.6 31.87,-2.75 5.33,-1.79 11.21,-2.64 16.68,-0.93 2.44,0.8 5,2.25 5.9,4.81 0.85,2.23 -0.32,4.61 -1.88,6.18 -2.88,2.99 -6.87,4.45 -10.58,6.09 17.59,-2 34.99,-6.75 50.62,-15.18 6.31,-3.64 14.81,-3.29 20.63,1.16 2.49,1.82 4.18,5.24 2.81,8.24 -1.44,3.41 -4.9,5.19 -7.68,7.34 12.41,0.53 22.92,-7.15 34.55,-10.15 5.86,-1.49 12.56,-2.5 18.05,0.71 4.47,2.53 8.76,6.85 8.9,12.27 0.02,3.72 -3.41,6.25 -6.73,7 -7.74,1.92 -15.65,-0.1 -23.34,-1.23 4.17,4.64 9.87,7.91 16.09,8.68 13.06,1.93 25.92,-3.54 38.96,-1.94 5.79,0.67 11.36,6.27 9.34,12.37 -1.95,7.02 -10.28,8.91 -16.63,7.83 7.4,5.16 17.24,3.98 24.69,9.01 4.73,3.06 7.94,7.8 10.98,12.43 1.18,-18.3 -3.67,-37.15 -14.46,-52.08 -9.19,-12.73 -22.47,-22.07 -36.82,-28.14 -13.16,-5.56 -27.4,-7.86 -41.53,-9.19 -24.11,-1.93 -48.3,-0.76 -72.44,-0.82 -19.53,-0.25 -39.8,-0.22 -58.15,-7.8 -10.66,-4.86 -19.91,-12.94 -26.16,-22.85 -6.39,-10.39 -8.95,-23.66 -4.64,-35.32 4.01,-11.29 13.72,-19.73 24.61,-24.19 16.8,-7.02 35.47,-7.44 53.37,-6.11 -11.19,-6.37 -24.05,-11.25 -37.13,-9.55 -5.22,0.52 -10.07,2.56 -14.84,4.61 0.08,-1 0.4,-1.93 0.98,-2.78 3.06,-4.96 6.95,-9.33 10.8,-13.67 -7.74,1.88 -15.74,4.31 -21.75,9.8 -3.75,3.19 -5.96,7.65 -8.76,11.59 -1.92,-3.68 -1.91,-7.98 -2.73,-11.98 49.86,-22.78 104.57,-34.64 159.37,-35.01 44.88,-0.09 89.83,7.25 132.11,22.37 72.53,25.53 136.94,73.35 182.67,135.12 45.68,61.15 72.68,136.11 76.16,212.38 -43.48,0 -86.96,-0.1 -130.44,0.05 -1.91,-11.37 -4.9,-22.54 -7.2,-33.84 -4.08,-18.6 -8.22,-37.18 -12.26,-55.79 -0.47,-1.48 -0.57,-3.25 -1.77,-4.39 -1.66,-0.74 -3.54,-0.49 -5.28,-0.58 -7.68,0.07 -15.35,0 -23.01,0.02 -1.68,0.19 -4.4,-0.21 -4.74,2.03 -4.37,14.15 -7.75,28.61 -12.21,42.73 -4.51,-14.1 -7.87,-28.55 -12.15,-42.72 -0.55,-2.63 -3.93,-1.81 -5.88,-2.06 -8.61,0.17 -17.24,-0.22 -25.84,0.19 -2.03,-0.13 -2.49,2.16 -2.87,3.67 -3.87,17.51 -7.78,35.01 -11.67,52.51 -2.6,12.76 -6.04,25.37 -8.15,38.22 -6.9,-0.11 -13.8,-0.06 -20.69,-0.03 9.8,-4.58 17.92,-12.79 21.77,-22.96 5.2,-13.67 5.11,-29.07 0.87,-42.98 -4.09,-13.15 -15.09,-23.76 -28.3,-27.55 -13.06,-3.8 -27.24,-3.36 -40.14,0.83 -12.21,3.95 -21.68,14.24 -25.97,26.17 -3.28,9.23 -3.85,19.24 -2.85,28.93 1.1,10.4 5.09,20.73 12.47,28.3 3.56,3.86 8.12,6.54 12.59,9.2 -14.42,0.07 -28.83,-0.01 -43.25,0.04 7.81,-3.56 13.69,-10.96 15.08,-19.47 2.98,-12.41 -3.15,-26.13 -14.44,-32.13 8,-7.84 11.98,-18.44 17.26,-28.08 1.56,-3.33 3.67,-6.43 4.76,-9.97 -0.49,-1.67 -1.56,-3.09 -2.42,-4.59 -6.74,-0.53 -13.5,-0.17 -20.24,-0.27 -4.96,0.1 -9.97,-0.36 -14.88,0.48 -5.47,10.05 -10.88,20.12 -16.32,30.19 -1.27,2.54 -3.13,4.78 -5.87,5.78 -0.15,-10.18 0.02,-20.37 -0.07,-30.56 0.31,-3.17 -2.62,-6.21 -5.81,-5.87 -8.02,-0.06 -16.03,-0.01 -24.03,-0.03 -3.3,-0.43 -6.61,2.56 -6.1,5.93 0.02,29.54 0.01,59.07 0,88.6 -7.96,-0.03 -15.91,-0.05 -23.87,0.01 7.61,-3.29 13.37,-10.38 15.06,-18.5 1.75,-8.34 0.66,-17.63 -4.58,-24.57 -2.41,-3.57 -5.99,-6.05 -9.46,-8.5 3.16,-4.44 7.27,-8.29 9.44,-13.42 3.9,-7.74 8.05,-15.36 11.86,-23.14 1.16,-2.08 -0.59,-4.33 -1.91,-5.88 -5.04,-1.11 -10.3,-0.27 -15.42,-0.52 -6.63,0.24 -13.34,-0.57 -19.91,0.56 -4.81,9.56 -10.16,18.85 -15.16,28.32 -1.67,2.97 -3.25,6.61 -6.94,7.41 -0.12,-10.11 0.01,-20.23 -0.02,-30.35 0.36,-3.28 -2.6,-6.33 -5.91,-5.93 -8.39,0.03 -16.79,-0.14 -25.18,0.08 -2.64,-0.14 -3.86,2.54 -5.22,4.3 -1.51,-1.81 -2.72,-4.7 -5.56,-4.35 -8.03,-0.14 -16.06,0.03 -24.08,-0.07 -2.06,0.09 -4.24,-0.21 -6.17,0.65 -2.43,4.4 -3.08,9.5 -4.83,14.17 -8.51,-0.01 -17.01,0.11 -25.5,-0.07 -1.46,-4.67 -2.41,-9.55 -4.38,-14.05 -2.57,-1.06 -5.44,-0.57 -8.14,-0.69 -8.1,0.18 -16.22,-0.31 -24.31,0.3 -1.12,1.88 -3.27,3.89 -2.02,6.24 11.05,29.32 22.01,58.67 33.09,87.97 -63.9,0.06 -127.8,-0.05 -191.69,-0.01 -3.28,-0.12 -5.53,-2.97 -8.37,-4.25 -3.55,-1.57 -7.35,-2.54 -11.16,-3.2 1.79,3.12 5.02,4.92 7.71,7.16 -3.37,0.05 -6.79,0.44 -10.13,-0.13 -7.24,-4.39 -14.07,-9.44 -21.18,-14.04 -2.46,-1.57 -5.36,-2.14 -8.16,-2.78 0.54,1.08 1.2,2.11 2.18,2.84 5.73,4.75 11.66,9.27 17.28,14.15 -4.05,-0.26 -8.76,1.26 -12.21,-1.53 -10.07,-6.87 -20.23,-13.62 -30.17,-20.69 -1.79,-1.3 -3.87,-2.08 -5.95,-2.76 0.51,2.18 2.49,3.36 4.07,4.72 8.32,6.74 16.36,13.83 24.93,20.25 -3.85,-0.46 -8.31,1.03 -11.63,-1.52 -12.84,-8.83 -25.58,-17.79 -38.16,-26.96 -1.27,-1.03 -2.79,-1.63 -4.38,-1.91 2.27,2.52 4.3,5.27 6.76,7.62 8.94,7.6 18,15.07 27.01,22.59 -2.9,0.15 -5.8,0.21 -8.7,0.22 -13.43,-9.2 -26.63,-18.75 -39.68,-28.5 -1.3,-1.08 -2.87,-1.71 -4.54,-1.99 1.8,2.68 4.47,4.55 6.83,6.68 8.96,8.06 18.19,15.8 27.28,23.7 -4.04,-0.25 -8.77,1.26 -12.15,-1.63 -13.22,-9.4 -26.32,-18.95 -39.12,-28.9 -1.08,-0.95 -2.45,-1.4 -3.81,-1.76 2.08,3.32 5.33,5.63 8.18,8.23 9,8.17 18.09,16.24 27.4,24.06 -3.97,-0.34 -8.63,1.26 -12.04,-1.43 -13.09,-9.5 -26.06,-19.17 -38.73,-29.22 -0.99,-0.96 -2.35,-1.17 -3.64,-1.44 0.79,1.19 1.66,2.33 2.7,3.32 10.48,9.7 21.15,19.2 31.77,28.76 -3.14,0.08 -6.28,0.06 -9.42,0.09 -12.41,-8.82 -24.45,-18.16 -36.34,-27.67 -1.08,-1.2 -2.69,-1.01 -4.14,-0.9 9.43,10.1 20.12,18.97 30.18,28.45 -3.97,-0.28 -8.69,1.32 -11.96,-1.66 -9.67,-7.49 -19.52,-14.76 -28.87,-22.66 -0.92,0.53 -2.54,0.41 -2.61,1.79 7.79,7.67 15.8,15.12 23.85,22.51 -3.46,-0.2 -7.29,0.87 -10.53,-0.61 -7.2,-5.4 -14.14,-11.15 -21.24,-16.67 -1.01,-0.92 -2.37,-0.33 -3.56,-0.32 -0.14,0.56 -0.41,1.68 -0.54,2.24 5.42,5.06 10.84,10.12 16.09,15.35 -3.14,0.1 -6.29,0.08 -9.43,0.17 -4.64,-3.34 -8.63,-7.66 -13.65,-10.41 -1.3,0.97 -2.73,2.16 -2.95,3.86 4.37,4.68 9.21,8.92 13.9,13.29 -4.69,4.53 -9.27,9.18 -14.16,13.5 0.99,1.47 2.04,2.91 3.09,4.33 4.52,-3.29 8.71,-7.03 13.2,-10.36 3.13,-0.67 6.38,-0.17 9.55,-0.2 -4.81,5.33 -10.38,9.92 -15.26,15.17 -1.16,1.61 1.6,2.3 2.45,3.18 7.43,-6.42 15.38,-12.2 23.03,-18.34 3.34,-0.09 6.67,-0.07 10.01,-0.04 -7.79,7.14 -15.63,14.22 -23.09,21.7 -1.37,1.2 -0.18,2.16 1.24,2.44 2.04,-0.97 3.74,-2.5 5.49,-3.91 8.58,-6.99 17.42,-13.66 26.3,-20.27 3.3,0 6.6,0.01 9.91,0.07 -9.46,8.05 -18.48,16.59 -27.51,25.11 -1.12,0.97 -1.99,2.18 -2.51,3.56 1.59,-0.24 3.21,-0.61 4.41,-1.77 10.88,-8.82 22.1,-17.21 33.34,-25.55 3.15,-2.55 7.56,-1.01 11.24,-1.33 -11.01,10.84 -23.19,20.47 -34.03,31.5 M 517.9,548.58 c 10.24,-28.1 20.99,-56.01 31.37,-84.06 0.65,-1.78 1.43,-3.54 2.46,-5.15 0.42,29.73 0.01,59.49 0.2,89.23 -11.34,-0.06 -22.69,-0.02 -34.03,-0.02 m 351.67,0 c 2.09,-10.69 3.96,-21.42 6.15,-32.09 1.52,2.97 2.16,6.27 3.04,9.45 2.06,7.55 4.2,15.08 6.24,22.63 -5.14,0.01 -10.29,-0.01 -15.43,0.01 m 49.43,0 c 3.04,-10.71 5.54,-21.61 9.18,-32.14 2.42,10.64 4.05,21.44 6.28,32.12 -5.16,0.02 -10.31,0 -15.46,0.02 m -141.51,-1.31 c -10.38,-1.96 -20.17,-7.88 -25.89,-16.89 -6.87,-10.7 -7.95,-24.04 -6.48,-36.39 1.23,-12.2 7.99,-23.98 18.58,-30.37 8.5,-5.06 18.66,-6.26 28.38,-6.04 10.55,-0.17 21.54,2.64 29.6,9.74 7.57,6.36 11.98,15.84 13.17,25.55 1.4,11.36 1.07,23.47 -4.08,33.93 -4.18,8.72 -12.05,15.46 -21.17,18.58 -10.26,3.52 -21.48,3.65 -32.11,1.89 m -293.34,-0.46 c -10.88,-29.27 -22.01,-58.45 -32.91,-87.72 8.84,0.06 17.68,-0.04 26.51,0.06 1.3,4.17 2.37,8.41 3.76,12.56 0.33,1.57 2.02,2.18 3.45,2.05 8.37,0.07 16.74,-0.02 25.11,0.04 1.69,-0.08 4.18,0.27 4.87,-1.78 1.62,-4.2 2.64,-8.6 4,-12.89 9.09,-0.04 18.18,-0.02 27.27,-0.02 -10.89,29.25 -21.97,58.43 -32.82,87.69 -9.75,0.13 -19.5,0.1 -29.24,0.01 m 72.94,0.04 c -0.03,-29.24 -0.01,-58.48 -0.01,-87.72 8.69,0.01 17.38,-0.03 26.08,0.02 0.09,11.26 -0.16,22.53 0.11,33.78 0.12,2.88 3.85,2.51 5.84,2.06 4.28,-0.65 7.13,-4.32 9.04,-7.92 5.02,-9.28 10.09,-18.55 15.02,-27.89 9.82,-0.12 19.65,-0.02 29.47,-0.05 -3.47,6.97 -7.19,13.81 -10.66,20.78 -2.74,5.57 -6.28,11 -11.39,14.64 -0.77,0.82 -2.38,1.27 -2.26,2.59 -0.35,1.98 1.9,2.62 3.26,3.33 5.09,2.15 9.46,6.04 11.96,11 2.51,4.78 2.66,10.4 2.12,15.67 -0.81,7.76 -6.32,14.88 -13.72,17.41 -6.44,2.09 -13.27,2.21 -19.97,2.31 -14.96,0 -29.92,0 -44.89,-0.01 m 96.66,0.03 c -0.07,-29.26 -0.01,-58.52 -0.03,-87.78 8.7,0 17.4,0 26.11,0 0.04,11 -0.09,21.99 0.04,32.99 -0.15,3.68 4.45,3.56 6.91,2.65 5.26,-1.33 7.55,-6.69 9.93,-11 4.46,-8.21 8.84,-16.46 13.35,-24.65 9.8,0.02 19.61,0 29.42,0.02 -3.65,7.4 -7.6,14.66 -11.3,22.04 -2.9,5.78 -6.94,11.12 -12.41,14.69 -1.98,1.22 -0.26,3.62 1.44,3.99 5.12,2.11 9.72,5.63 12.54,10.46 3.26,5.31 3.27,11.81 2.63,17.8 -1.16,7.78 -7,14.62 -14.58,16.81 -6.11,1.7 -12.51,1.92 -18.8,1.98 -15.09,0 -30.17,0 -45.25,0 m 186.75,0 c 6.23,-29.3 13.03,-58.48 19.34,-87.76 8.68,0.03 17.37,-0.06 26.06,0.05 4.44,16.27 8.97,32.52 13.49,48.76 0.32,2.66 4.4,3.86 4.97,0.67 4.73,-16.43 9.26,-32.94 13.78,-49.44 8.68,-0.09 17.36,-0.03 26.05,-0.04 6.3,29.27 13,58.46 19.18,87.75 -8.14,-0.03 -16.27,0.03 -24.41,-0.04 -2.5,-13.25 -5.01,-26.5 -7.49,-39.75 -0.43,-1.5 -0.47,-3.94 -2.56,-3.95 -2.07,-0.47 -2.88,1.67 -3.26,3.25 -3.62,13.5 -7.51,26.93 -11.12,40.44 -8.38,0.06 -16.76,0.1 -25.14,-0.02 -3.74,-13.92 -7.51,-27.84 -11.51,-41.68 -0.45,-3.16 -5.06,-2.24 -5.04,0.69 -2.74,13.65 -5.16,27.38 -7.82,41.05 -8.18,0.01 -16.35,-0.01 -24.52,0.02 M 584.29,529.82 c 2.32,1.2 5.18,0.45 7.73,0.67 4.95,-0.14 10.54,0.41 14.79,-2.64 4.87,-3.98 3.8,-13.06 -2.13,-15.48 -5.96,-2.03 -12.37,-2.17 -18.58,-1.8 -1.25,0.09 -3.07,0.76 -2.87,2.31 -0.09,5.31 -0.26,10.66 0.1,15.96 0.24,0.24 0.72,0.73 0.96,0.98 m 3.78,-4.53 c -0.09,-3.21 -0.14,-6.42 -0.09,-9.64 4.68,-0.04 9.49,-0.36 14,1.15 3.81,0.58 3.82,7.4 0.01,7.93 -4.58,0.92 -9.28,0.52 -13.92,0.56 m 93.15,4.57 c 1.82,0.82 3.91,0.45 5.86,0.56 5.19,-0.13 10.75,0.51 15.54,-1.91 5.74,-3.4 5.24,-13.49 -1.05,-16.03 -6.23,-2.15 -13,-2.43 -19.5,-1.76 -3.44,1.08 -1.9,5.62 -2.27,8.3 0.52,3.48 -1.25,8.19 1.42,10.84 m 3.66,-4.54 c -0.01,-3.22 -0.01,-6.45 0,-9.68 4.07,0.02 8.22,-0.35 12.23,0.65 1.55,0.4 3.42,0.8 4.17,2.41 1.06,2.12 0.32,5.47 -2.29,6 -4.63,1.03 -9.42,0.53 -14.11,0.62 m 101.32,3.42 c 7.54,1.46 16.24,-1.56 20,-8.55 3.63,-7.07 3.8,-15.37 3.05,-23.12 -0.67,-6.13 -2.09,-13.02 -7.36,-16.91 -7.52,-5.4 -19.28,-4.89 -25.65,2.09 -3.87,4.3 -5.07,10.25 -5.52,15.85 -0.3,6.65 -0.27,13.55 2.22,19.83 2.09,5.6 7.3,9.95 13.26,10.81 m -0.79,-5.2 c -5.14,-1.39 -8.32,-6.45 -9.1,-11.48 -1.23,-7.68 -1.46,-15.92 1.47,-23.25 3.54,-8.37 15.92,-9.66 22.21,-3.79 3.68,4.01 4.2,9.8 4.49,14.98 0.14,6.21 0.43,12.97 -3,18.44 -3.34,5.21 -10.39,6.84 -16.07,5.1 m -288.14,-2.73 c 2,0.75 3.62,-0.96 3.92,-2.83 2.34,-7.67 4.83,-15.31 6.98,-23.04 0.63,-1.4 -0.66,-3.34 -2.21,-3.28 -4.63,-0.31 -9.28,-0.15 -13.91,-0.11 -1.87,-0.2 -4.4,1.16 -3.34,3.33 1.83,6.86 4.17,13.58 6.09,20.42 0.67,1.88 0.94,4.1 2.47,5.51 m -3.04,-24.25 c 2.79,0 5.59,0 8.39,0.02 -1.33,4.5 -2.71,8.98 -4.12,13.46 -1.65,-4.42 -2.85,-8.99 -4.27,-13.48 m 190.23,-56.63 c 1.45,5.98 7.01,9.92 12.59,11.71 2.08,0.61 5.01,1.1 6.44,-1 1.77,-3.05 -0.34,-7.42 -3.56,-8.51 -3.11,-0.32 -6.46,0.8 -9.37,-0.75 -3.72,-1.81 -5.65,-6.13 -5,-10.16 -1.87,2.46 -1.63,5.85 -1.1,8.71 m 74.3,6.35 c 1.78,3.48 6.14,3.69 9.25,5.38 4.35,-1.27 9.87,-0.78 12.81,-4.87 5.66,-6.48 10.21,-13.89 14.23,-21.48 -5.14,3.83 -11.51,6.72 -18.05,5.77 -3.24,-0.37 -6.8,-2.47 -7.05,-6.03 -0.4,-5.19 5.33,-8.72 4.25,-14.06 -0.76,-6.51 -9.28,-9.35 -14.54,-6.27 -7.25,4.1 -11.03,12.05 -17.76,16.79 0.69,-3.95 1.75,-8.11 0.5,-12.07 -1.1,-3.65 -5.72,-4.29 -7.19,-7.72 -3.7,-7.36 -2.92,-16 -1.59,-23.87 -4.13,3.33 -7.97,7.53 -8.99,12.91 -1.52,7.45 1.71,14.67 4.52,21.39 2.82,5.92 2.17,12.89 1.64,19.07 -1.14,-0.66 -1.37,-2.04 -1.98,-3.11 -2.74,-5.95 -7.9,-10.8 -14.17,-12.83 0.41,-4.68 -0.65,-9.27 -2.21,-13.65 -2.08,-5.82 0.43,-11.8 2.55,-17.2 -4.95,4.52 -9.37,10.52 -9.22,17.54 0.26,6.92 2.32,13.8 0.92,20.74 6.33,4.26 8.38,12.78 15.4,16.18 2.29,1.03 5.28,2.47 7.57,0.69 1.8,-1.61 0.99,-4.31 1.57,-6.43 1.58,0.39 2.06,2.55 3.68,3.02 5.67,2.04 11.82,-2.22 17.39,0.58 3.68,1.87 4.47,6.29 6.47,9.53 m 44.21,3.8 c 16.36,0.09 32.73,0.15 49.09,0.16 1.68,-33.42 -3.45,-67.97 -19.79,-97.54 -7.23,-13.47 -17.11,-25.34 -28.17,-35.83 -16.55,-15.71 -37.05,-27.58 -59.48,-32.36 -18.53,-4.24 -37.88,-4.03 -56.56,-0.88 -14.14,2.27 -27.68,7.12 -41.71,9.92 -16.49,3.39 -33.55,5.88 -50.36,3.43 -11.02,-1.64 -22.21,-6.87 -28.16,-16.7 -4.41,-7.42 -7.48,-16.55 -5.25,-25.19 2.46,-8.38 10.66,-13.33 18.53,-15.84 15.48,-4.77 32.07,-4.39 47.94,-2.06 9.01,1.54 18.36,3.36 25.98,8.7 -6.61,-8.29 -17.18,-11.86 -27.08,-14.44 -18.14,-4.24 -37.72,-4.38 -55.36,2.09 -10.72,3.94 -20.62,12.1 -23.61,23.51 -2.99,11.88 -0.36,25.16 6.85,35.07 8.96,12.3 23.8,18.13 38.05,21.78 25.53,5.73 52.13,6.54 78.05,3.13 19.39,-1.5 39.01,-0.23 58.08,3.58 16.31,3.52 33.18,8.41 45.99,19.63 10.36,9.9 18,22.52 22.64,36.04 8.06,23.7 7.19,49.26 4.33,73.8 m 54.12,0.16 c 8.05,0 16.09,0.01 24.14,-0.01 3.6,-28 -6.22,-56.02 -21.35,-79.26 -7.98,-11.9 -17.25,-23.11 -28.35,-32.23 5,9.8 10.03,19.61 13.71,30 9.59,25.95 13.42,53.91 11.85,81.5 m -155.16,-8.08 c 2.86,1.99 7.26,3.74 10.16,0.9 4.24,-4.91 1.67,-14.65 -5.19,-15.55 -4.81,-0.67 -9.72,-2.81 -12.25,-7.16 -3.03,-4.61 -2.31,-10.38 -1.18,-15.47 -3.97,5.03 -6.17,11.62 -4.98,18.02 1.46,7.97 7.03,14.61 13.44,19.26 M 335.58,296.76 c 7.78,11.32 15.83,22.46 24.23,33.33 2.44,-3.57 4.83,-7.19 7.42,-10.67 -5.28,-6.44 -10.93,-12.56 -16.12,-19.07 7.96,2.68 15.85,5.57 23.7,8.55 2.4,-3.13 4.79,-6.27 7.31,-9.33 -4.67,-7.18 -9.59,-14.2 -14.08,-21.49 7.48,3.7 14.95,7.43 22.31,11.36 2.34,-3.19 5.92,-5.7 7.53,-9.26 -0.89,-0.8 -1.88,-1.5 -2.98,-1.99 -11.23,-4.95 -22.57,-9.65 -34.04,-14.03 -2.78,3.29 -5.51,6.61 -8.22,9.95 4.35,6.86 9.03,13.51 13.43,20.34 -7.57,-2.81 -15.12,-5.69 -22.76,-8.33 -2.61,3.52 -5.2,7.06 -7.73,10.64 m 712.82,21.15 c 1.67,4.57 5.46,8.95 10.59,9.35 4.67,0.35 8.86,-2.19 12.6,-4.68 6.29,-4.18 12.62,-8.32 18.92,-12.5 -2.76,-4.17 -5.58,-8.3 -8.45,-12.4 -6.39,4.41 -12.6,9.08 -19.05,13.38 -2.41,1.8 -6.46,0.95 -7.23,-2.17 -1.08,-3.34 1.82,-6.06 4.23,-7.86 5.31,-3.95 10.64,-7.86 15.93,-11.83 -2.94,-3.95 -5.92,-7.87 -8.96,-11.74 -6.31,4.87 -12.36,10.08 -18.8,14.75 -2.19,1.73 -5.75,0.84 -6.66,-1.85 -1.22,-2.96 0.97,-5.82 3.11,-7.67 5.24,-4.51 10.69,-8.77 15.89,-13.32 -3.15,-3.67 -6.25,-7.38 -9.44,-11.01 -9.66,8.67 -19.55,17.1 -29.06,25.93 2.77,3.02 5.4,6.16 8.02,9.3 1.4,-1.16 2.8,-2.34 4.21,-3.53 -1.24,5.28 -0.19,11.11 3.88,14.9 2.53,3.09 6.65,3.64 10.4,3.29 -0.56,3.18 -1.3,6.54 -0.13,9.66 M 397.9,278.56 c 0.23,0.18 0.68,0.53 0.9,0.7 3.29,-2.29 5.55,-5.76 8.49,-8.47 -4.42,-7.01 -9.01,-13.92 -13.28,-21.02 7.45,3.84 14.72,8.01 22,12.14 2.75,-2.68 5.53,-5.33 8.33,-7.96 -3.77,-7.59 -7.41,-15.25 -10.98,-22.94 6.97,4.58 13.6,9.64 20.36,14.52 2.77,-2.64 6.1,-4.72 8.53,-7.72 -0.13,-0.26 -0.4,-0.78 -0.54,-1.05 -10.94,-7.22 -22.19,-13.97 -33.51,-20.58 -3.14,2.71 -6.19,5.51 -9.3,8.25 3.26,7.46 7.01,14.68 10.49,22.03 -7.06,-3.91 -14.03,-8 -21.16,-11.79 -2.99,2.99 -5.96,5.98 -8.88,9.03 5.9,11.76 12.03,23.43 18.55,34.86 m 614.49,-7.12 c 13.97,4.47 30.11,-10.27 25.94,-24.64 -3.09,-9.52 -12.76,-17.97 -23.24,-16.37 -9.34,1.52 -16.81,10.19 -17.75,19.47 -1.09,9.64 6.37,18.4 15.05,21.54 m -0.03,-11.81 c -2.11,-1 -3.45,-3.34 -3.25,-5.68 0.2,-3.31 2.49,-5.98 4.75,-8.21 2.13,-2.01 4.95,-3.9 8.05,-3.34 3.35,0.56 5.72,4.24 4.81,7.53 -0.89,3.25 -3.4,5.75 -5.91,7.83 -2.3,1.89 -5.58,3.24 -8.45,1.87 m -42.6,-24.4 c 3.74,3.42 8.13,6.64 13.32,7.19 4.2,0.46 8.2,-1.28 11.78,-3.29 -2.68,-3.22 -5.36,-6.44 -8.21,-9.51 -3.71,2.83 -9.33,0.81 -10.46,-3.66 -1.02,-5 2.54,-9.65 6.22,-12.63 3.2,-2.64 8.36,-1.66 10.43,1.93 1.62,2.25 0.79,5.08 0.28,7.53 3.63,2.35 7.19,4.81 10.81,7.18 1.83,-4.19 3.07,-8.92 1.72,-13.46 -1.92,-6.71 -7.8,-11.3 -13.61,-14.62 -6.41,-3.75 -15.12,-2.37 -20.21,2.96 -4.9,5.04 -8.99,11.83 -7.99,19.12 0.31,4.4 2.7,8.36 5.92,11.26 m -526.58,1.63 c 3.59,-1.32 6.16,-4.8 9.43,-6.88 -3.44,-7.46 -6.99,-14.88 -10.15,-22.47 6.81,4.76 13.1,10.22 19.83,15.08 3.18,-1.92 6.07,-4.29 9.15,-6.36 -2.61,-8.01 -5.38,-15.99 -7.56,-24.14 6.04,5.69 11.93,11.54 17.85,17.35 3.35,-2.17 6.74,-4.27 10.15,-6.35 -10.12,-9.06 -20.58,-17.74 -31.12,-26.31 -3.57,2.09 -7.01,4.4 -10.35,6.82 2.49,7.73 4.92,15.48 7.52,23.17 -6.31,-5.1 -12.72,-10.08 -19.16,-15.02 -3.36,2.41 -6.64,4.9 -9.91,7.42 3.9,11.58 8.11,23.06 12.53,34.45 0.45,1.17 1.05,2.26 1.79,3.24 m 484.68,-32.1 c 3.4,2.11 6.78,4.27 10.16,6.43 3.42,-11.93 6.47,-23.95 9.36,-36.02 0.14,-1.22 0.82,-2.52 0.38,-3.76 -3.2,-2.23 -6.7,-4.01 -10.03,-6.05 -5.97,5.51 -11.81,11.15 -17.62,16.83 1.78,-7.87 3.54,-15.74 5.25,-23.63 -3.57,-2.01 -7.2,-3.92 -10.92,-5.62 -9.55,9.67 -19.03,19.4 -28.14,29.47 3.6,1.73 7.2,3.46 10.79,5.23 5.22,-6.34 10.3,-12.82 15.81,-18.93 -1.6,8.17 -3.44,16.29 -5.3,24.4 3.24,1.76 6.48,3.56 9.68,5.4 6.1,-5.84 12.15,-11.75 18.45,-17.39 -2.4,7.96 -5.19,15.78 -7.87,23.64 m 26.4,-11.49 c 3.93,2.66 7.82,5.39 11.73,8.08 2.9,-4.06 5.82,-8.12 8.69,-12.21 -4.04,-2.8 -8.01,-5.7 -12.2,-8.29 -2.68,4.18 -5.47,8.29 -8.22,12.42 m -415.38,1.83 c 3.59,-1.67 7.23,-3.27 10.88,-4.83 -7.01,-16.48 -14.1,-32.93 -21.07,-49.43 -3.87,1.56 -7.67,3.29 -11.5,4.96 0.73,1.67 1.47,3.35 2.24,4.99 -2.39,-0.91 -4.77,-2.18 -7.38,-2.2 -5.69,0.07 -11.43,4.09 -12.5,9.85 -1.22,6.5 1.06,13.08 4.4,18.6 2.58,4.3 6.17,8.37 11.07,9.97 5.28,1.94 11.88,-0.36 14.49,-5.42 0.63,-0.77 0.86,-2.05 1.88,-2.51 2.59,5.3 4.86,10.75 7.49,16.02 m -19.63,-20.42 c -2.86,-1.43 -4.35,-4.5 -5.65,-7.27 -1.17,-2.66 -2.02,-6.21 0.18,-8.61 2.12,-2.3 5.98,-1.67 7.86,0.61 2.5,2.96 4.35,6.75 4.36,10.68 0.05,3.31 -3.62,6.28 -6.75,4.59 m -44.14,-6.88 c 2.55,4.3 5.1,8.61 7.65,12.9 4.04,-2.36 8.1,-4.69 12.21,-6.94 -2.39,-4.39 -4.82,-8.76 -7.21,-13.15 -4.26,2.33 -8.47,4.73 -12.65,7.19 m 393.25,7.69 c 4.38,1.53 9.38,1.59 13.6,-0.52 6.61,-3.18 10.87,-10 12.29,-17.05 1.28,-6.25 -0.94,-13.23 -6.06,-17.18 -5.65,-4.38 -13.59,-6.75 -20.47,-4.01 -9.97,4.01 -14.72,16.47 -11.96,26.47 1.58,6.05 6.75,10.52 12.6,12.29 m 2.09,-10.16 c -4.13,-2.11 -3.54,-7.59 -2.04,-11.22 1.22,-3.2 3.1,-6.87 6.74,-7.74 3.42,-0.85 6.88,2.15 6.84,5.6 -0.04,3.78 -1.59,7.41 -3.67,10.5 -1.65,2.46 -4.98,4.36 -7.87,2.86 M 536.29,137.65 c 4.86,12 9.76,23.99 14.6,36.01 3.61,-1.37 7.22,-2.75 10.81,-4.21 -0.74,-1.82 -1.47,-3.66 -2.2,-5.5 2.25,1.74 4.39,4.25 7.48,4.23 3.01,0.02 5.22,-2.23 7.29,-4.11 -2.29,-2.99 -4.65,-5.92 -7.01,-8.85 -2.23,2.01 -5.87,3.41 -8.06,0.54 -5.4,-6.59 -7.01,-15.28 -10.3,-22.97 -4.22,1.57 -8.43,3.18 -12.61,4.86 m 305.38,27.72 c 2.33,1.71 5.32,1.22 8.01,1.13 0.09,-3.75 0.01,-7.51 0.03,-11.27 -2.82,0.06 -6.51,-0.7 -6.67,-4.18 -0.39,-8.66 3.95,-16.61 6.08,-24.82 -4.25,-1.31 -8.51,-2.57 -12.75,-3.92 -3.82,12.43 -7.35,24.94 -10.93,37.43 3.67,1.02 7.32,2.15 10.98,3.24 0.62,-1.97 1.26,-3.95 1.88,-5.94 0.5,2.94 0.61,6.52 3.37,8.33 M 572.36,154.31 c 2.26,3.38 5.21,6.84 9.52,7.33 5.93,0.6 11.76,-1.4 17.19,-3.59 4.14,-1.55 7.22,-5.57 7.19,-10.07 0.11,-10.57 -6.05,-20.35 -5.07,-30.99 -4.06,1.02 -8.13,2.03 -12.18,3.08 -0.07,1.61 -0.12,3.2 -0.13,4.78 -6.21,-4.03 -14.85,-2.95 -20.4,1.7 -6.46,5.78 -2.21,18.46 6.57,18.81 6.29,0.34 12.61,-0.83 18.91,0.06 0.01,1.66 0.94,3.71 -0.55,4.99 -3.08,2.35 -7.9,2.21 -10.04,-1.34 -3.76,1.56 -7.53,3.13 -11.01,5.24 m 9.05,-16.92 c -2.7,-0.74 -3.82,-4.69 -1.67,-6.61 3.15,-2.47 8.42,-1.34 10.32,2.18 0.87,1.68 1.32,3.54 1.92,5.31 -3.52,-0.3 -7.12,-0.06 -10.57,-0.88 m 234.04,20.21 c 2.43,1.57 5.41,0.88 8.09,0.58 -0.21,-3.75 -0.49,-7.51 -0.77,-11.28 -2.9,0.45 -6.65,-0.37 -6.91,-3.91 -0.76,-8.53 2.87,-16.65 4.51,-24.9 -4.35,-1.05 -8.7,-2.08 -13.07,-3.03 -2.78,12.65 -5.6,25.3 -8.38,37.95 3.73,0.85 7.45,1.72 11.18,2.56 0.46,-1.95 0.93,-3.92 1.39,-5.9 0.82,2.8 1.16,6.31 3.96,7.93 m -201.2,-11.93 c 2.89,4.96 9.1,7.93 14.71,5.99 3.99,-0.82 6.38,-4.36 8.05,-7.79 0.3,1.79 0.61,3.56 0.93,5.32 3.69,-0.6 7.4,-1.17 11.11,-1.67 -1.46,-12.58 -3.55,-25.08 -5.22,-37.64 -0.66,-5.8 -4.33,-11.72 -10.21,-13.32 -5.35,-1.33 -10.96,-0.37 -16.19,1.04 -4.14,1.2 -8.69,3.11 -10.53,7.32 -1.56,3.09 -0.89,6.61 -0.35,9.85 4.12,-1.27 8.19,-2.72 12.27,-4.13 0.6,-4.27 6.05,-6.59 9.46,-3.91 2.72,3 2.42,7.47 3.44,11.16 -3.18,-2.52 -7.21,-4.31 -11.33,-3.37 -5.96,0.93 -9.84,6.71 -10.43,12.39 -0.58,6.47 0.98,13.18 4.29,18.76 m 13.2,-5.18 c -2.68,-0.96 -3.75,-3.91 -4.38,-6.45 -0.69,-2.92 -1.27,-6.57 0.99,-9 2.02,-2.15 5.79,-1.96 7.63,0.34 2.32,2.94 2.9,7.04 2.33,10.65 -0.47,2.97 -3.53,5.56 -6.57,4.46 m 137.25,5.77 c 5.24,2.92 11.43,3.52 17.32,3.71 4.44,0.23 8.6,-2.54 10.38,-6.56 4.28,-9.46 3.04,-20.69 8.34,-29.76 -3.98,-0.68 -7.9,-1.68 -11.9,-2.13 -1.45,0.67 -1.66,2.64 -2.55,3.79 -4.33,-5.97 -12.5,-8.78 -19.54,-6.57 -6.6,2.42 -8.73,11.67 -4.67,17.13 2.42,2.93 6.18,4.1 9.58,5.48 3.64,1.36 7.13,3.08 10.48,5.04 -0.68,1.68 -0.97,4.29 -3.25,4.42 -3.77,0.51 -7.39,-1.75 -7.98,-5.61 -3.99,-0.09 -7.97,-0.11 -11.95,-0.06 0.38,4.26 1.79,8.87 5.74,11.12 m 9.44,-22.48 c -2.22,-1.92 -1.18,-6.29 1.83,-6.72 3.36,-0.47 6.82,1.91 7.72,5.16 0.51,2.28 -0.08,4.59 -0.33,6.84 -3.06,-1.77 -6.46,-3.02 -9.22,-5.28 M 667.4,145.41 c 7.21,1.27 15.67,-0.92 19.76,-7.4 4.86,-7.64 4.75,-18.38 -0.43,-25.84 -7.8,-11 -27.68,-8.96 -32.87,3.6 -4.74,11.11 0.9,27.07 13.54,29.64 m 1.93,-10.68 c -4.35,-3.09 -4.57,-9.32 -3.99,-14.15 0.43,-3.94 5.12,-6.86 8.64,-4.56 4.24,3.08 4.16,9.23 3.64,13.91 -0.37,3.81 -4.7,7.15 -8.29,4.8 m 27.91,8.73 c 3.75,-0.08 7.49,-0.14 11.25,-0.17 -0.03,-2.04 -0.04,-4.1 -0.07,-6.17 2.84,4.14 7.19,7.85 12.57,7.21 5.88,0.07 9.73,-5.56 10.27,-10.92 0.95,-9.41 1.08,-18.88 1.71,-28.32 -4.45,-0.23 -8.91,-0.39 -13.36,-0.52 -0.25,7.48 -0.27,14.98 -0.61,22.45 0.02,2.46 -1.22,5.58 -4.09,5.59 -3.44,0.34 -5.35,-3.31 -5.41,-6.29 -0.39,-7.28 0,-14.58 -0.12,-21.87 -4.4,0 -8.8,0.06 -13.2,0.15 0.34,12.96 0.66,25.91 1.06,38.86 m 39.39,-12.94 c 6.05,0.51 12.11,0.96 18.15,1.58 0.4,-3.8 0.81,-7.59 1.22,-11.4 -6.19,-0.65 -12.4,-1.19 -18.61,-1.57 -0.23,3.8 -0.48,7.6 -0.76,11.39" /></g></svg>